AB08_12Mar_ss_12ms_01
version=1
nRows=54
nColumns=19
inDegrees=yes
endheader
time	ground_force1_vx	ground_force1_vy	ground_force1_vz	ground_force1_px	ground_force1_py	ground_force1_pz	ground_torque1_x	ground_torque1_y	ground_torque1_z	ground_force2_vx	ground_force2_vy	ground_force2_vz	ground_force2_px	ground_force2_py	ground_force2_pz	ground_torque2_x	ground_torque2_y	ground_torque2_z
22.875000	48.188477	705.397156	10.300600	0.382684	0.000000	-0.844711	0.000026	-7.975073	0.000020	-0.000000	-0.000000	0.000000	0.727500	0.000000	-0.812500	0.000000	0.000000	-0.000000	
22.876000	41.474609	701.461609	6.791079	0.378936	0.000000	-0.842524	0.000010	-6.826045	0.000033	-0.000000	-0.000000	0.000000	0.727500	0.000000	-0.812500	0.000000	0.000000	-0.000000	
22.877000	39.338379	701.461609	6.485903	0.378199	0.000000	-0.847372	0.000032	-6.683435	0.000015	-0.000000	-0.000000	0.000000	0.727500	0.000000	-0.812500	0.000000	0.000000	-0.000000	
22.878000	45.441895	708.121765	7.401430	0.380169	0.000000	-0.849694	0.000051	-8.537542	0.000033	-0.000000	-0.000000	0.000000	0.727500	0.000000	-0.812500	0.000000	0.000000	-0.000000	
22.879000	49.561768	714.176453	9.842836	0.382323	0.000000	-0.848612	0.000062	-7.562850	0.000022	-0.000000	-0.000000	0.000000	0.727500	0.000000	-0.812500	0.000000	0.000000	-0.000000	
22.880000	51.087646	713.873718	8.774721	0.384244	0.000000	-0.848972	0.000004	-7.508036	0.000028	-0.000000	-0.000000	0.000000	0.727500	0.000000	-0.812500	0.000000	0.000000	-0.000000	
22.881000	46.967773	711.754578	7.401430	0.380926	0.000000	-0.847404	0.000025	-8.389387	0.000006	-0.000000	-0.000000	0.000000	0.727500	0.000000	-0.812500	0.000000	0.000000	-0.000000	
22.882000	42.542725	706.305359	8.011782	0.379160	0.000000	-0.840873	0.000003	-7.875954	0.000014	-0.000000	-0.000000	0.000000	0.727500	0.000000	-0.812500	0.000000	0.000000	-0.000000	
22.883000	43.305664	703.580750	9.079897	0.379789	0.000000	-0.836879	0.000041	-8.511071	-0.000005	-0.000000	-0.000000	0.000000	0.727500	0.000000	-0.812500	0.000000	0.000000	-0.000000	
22.884000	47.120361	704.186218	7.248842	0.382189	0.000000	-0.839609	0.000030	-7.125819	0.000020	-0.000000	-0.000000	0.000000	0.727500	0.000000	-0.812500	0.000000	0.000000	-0.000000	
22.885000	47.730713	708.727234	5.875551	0.381928	0.000000	-0.835600	0.000008	-7.286768	0.000015	-0.000000	-0.000000	0.000000	0.727500	0.000000	-0.812500	0.000000	0.000000	-0.000000	
22.886000	47.730713	714.176453	6.638491	0.380669	0.000000	-0.836708	0.000011	-9.697845	0.000017	-0.000000	-0.000000	0.000000	0.727500	0.000000	-0.812500	0.000000	0.000000	-0.000000	
22.887000	46.967773	717.506531	6.943666	0.380755	0.000000	-0.840950	0.000043	-8.154802	0.000009	-0.000000	-0.000000	0.000000	0.727500	0.000000	-0.812500	0.000000	0.000000	-0.000000	
22.888000	48.035889	716.295593	4.502260	0.379955	0.000000	-0.838302	0.000031	-8.847147	-0.000003	-0.000000	-0.000000	0.000000	0.727500	0.000000	-0.812500	0.000000	0.000000	-0.000000	
22.889000	48.035889	708.727234	0.687563	0.381720	0.000000	-0.837999	-0.000005	-7.872705	0.000015	-0.000000	-0.000000	0.000000	0.727500	0.000000	-0.812500	0.000000	0.000000	-0.000000	
22.890000	44.831543	699.039734	-0.990904	0.382995	0.000000	-0.835365	0.000020	-6.624651	0.000019	-0.000000	-0.000000	0.000000	0.727500	0.000000	-0.812500	0.000000	0.000000	-0.000000	
22.891000	42.237549	700.856140	0.382387	0.382108	0.000000	-0.826961	0.000026	-8.778780	0.000025	-0.000000	-0.000000	0.000000	0.727500	0.000000	-0.812500	0.000000	0.000000	-0.000000	
22.892000	41.016846	708.424500	2.060854	0.380841	0.000000	-0.826013	0.000002	-9.101590	0.000028	-0.000000	-0.000000	0.000000	0.727500	0.000000	-0.812500	0.000000	0.000000	-0.000000	
22.893000	45.441895	719.322937	3.434145	0.379896	0.000000	-0.835787	-0.000008	-5.786065	0.000019	-0.000000	-0.000000	0.000000	0.727500	0.000000	-0.812500	0.000000	0.000000	-0.000000	
22.894000	51.850586	725.377625	4.807436	0.379678	0.000000	-0.836178	0.000037	-4.969443	-0.000003	-0.000000	-0.000000	0.000000	0.727500	0.000000	-0.812500	0.000000	0.000000	-0.000000	
22.895000	49.104004	719.625671	6.791079	0.379839	0.000000	-0.834085	0.000005	-4.789112	0.000006	-0.000000	-0.000000	0.000000	0.727500	0.000000	-0.812500	0.000000	0.000000	-0.000000	
22.896000	44.678955	709.635437	7.554018	0.380815	0.000000	-0.832134	0.000013	-5.092452	0.000036	-0.000000	-0.000000	0.000000	0.727500	0.000000	-0.812500	0.000000	0.000000	-0.000000	
22.897000	44.068604	701.158875	4.044497	0.384366	0.000000	-0.824525	0.000018	-10.007191	0.000007	-0.000000	-0.000000	0.000000	0.727500	0.000000	-0.812500	0.000000	0.000000	-0.000000	
22.898000	45.899658	701.461609	-0.685728	0.385253	0.000000	-0.820706	0.000056	-11.964316	0.000027	-0.000000	-0.000000	0.000000	0.727500	0.000000	-0.812500	0.000000	0.000000	-0.000000	
22.899000	46.815186	708.424500	-3.737486	0.382613	0.000000	-0.823270	0.000038	-10.327101	0.000023	-0.000000	-0.000000	0.000000	0.727500	0.000000	-0.812500	0.000000	0.000000	-0.000000	
22.900000	41.474609	716.295593	-2.669370	0.377171	0.000000	-0.827789	0.000025	-10.203086	0.000004	-0.000000	-0.000000	0.000000	0.727500	0.000000	-0.812500	0.000000	0.000000	-0.000000	
22.901000	40.559082	721.442078	1.755678	0.373969	0.000000	-0.825587	0.000045	-9.554479	0.000029	-0.000000	-0.000000	0.000000	0.727500	0.000000	-0.812500	0.000000	0.000000	-0.000000	
22.902000	44.221191	716.901062	3.281557	0.377780	0.000000	-0.825056	0.000033	-7.156083	0.000029	-0.000000	-0.000000	0.000000	0.727500	0.000000	-0.812500	0.000000	0.000000	-0.000000	
22.903000	49.714355	710.846375	1.297915	0.384322	0.000000	-0.821490	0.000023	-6.619675	0.000016	-0.000000	-0.000000	0.000000	0.727500	0.000000	-0.812500	0.000000	0.000000	-0.000000	
22.904000	53.986816	706.910828	-2.516783	0.390327	0.000000	-0.819535	0.000042	-6.955786	0.000002	-0.000000	-0.000000	0.000000	0.727500	0.000000	-0.812500	0.000000	0.000000	-0.000000	
22.905000	47.578125	707.516296	-6.331480	0.384878	0.000000	-0.822267	0.000013	-4.773675	0.000006	-0.000000	-0.000000	0.000000	0.727500	0.000000	-0.812500	0.000000	0.000000	-0.000000	
22.906000	41.322021	710.543640	-6.636656	0.378146	0.000000	-0.824233	-0.000003	-5.375292	0.000010	-0.000000	-0.000000	0.000000	0.727500	0.000000	-0.812500	0.000000	0.000000	-0.000000	
22.907000	41.932373	710.846375	-2.364195	0.376634	0.000000	-0.820807	0.000025	-7.109726	0.000021	-0.000000	-0.000000	0.000000	0.727500	0.000000	-0.812500	0.000000	0.000000	-0.000000	
22.908000	46.052246	717.203796	-0.838316	0.377002	0.000000	-0.818612	0.000048	-4.861126	-0.000007	-0.000000	-0.000000	0.000000	0.727500	0.000000	-0.812500	0.000000	0.000000	-0.000000	
22.909000	50.629883	719.322937	-1.143492	0.381025	0.000000	-0.821603	0.000020	-5.832629	0.000001	-0.000000	-0.000000	0.000000	0.727500	0.000000	-0.812500	0.000000	0.000000	-0.000000	
22.910000	51.087646	717.506531	0.382387	0.383637	0.000000	-0.815896	0.000012	-7.354059	0.000025	-0.000000	-0.000000	0.000000	0.727500	0.000000	-0.812500	0.000000	0.000000	-0.000000	
22.911000	51.392822	713.570984	0.229799	0.384821	0.000000	-0.812226	0.000040	-8.698932	0.000023	-0.000000	-0.000000	0.000000	0.727500	0.000000	-0.812500	0.000000	0.000000	-0.000000	
22.912000	51.240234	706.608093	-1.448667	0.384955	0.000000	-0.809228	0.000025	-8.629795	0.000023	-0.000000	-0.000000	0.000000	0.727500	0.000000	-0.812500	0.000000	0.000000	-0.000000	
22.913000	49.104004	708.121765	-3.737486	0.381316	0.000000	-0.811272	0.000049	-6.988449	0.000020	-0.000000	-0.000000	0.000000	0.727500	0.000000	-0.812500	0.000000	0.000000	-0.000000	
22.914000	47.730713	712.057312	-5.415953	0.377446	0.000000	-0.814294	0.000015	-8.085034	0.000036	-0.000000	-0.000000	0.000000	0.727500	0.000000	-0.812500	0.000000	0.000000	-0.000000	
22.915000	43.000488	718.717468	-5.721128	0.375284	0.000000	-0.817563	0.000039	-9.153847	0.000017	-0.000000	-0.000000	0.000000	0.727500	0.000000	-0.812500	0.000000	0.000000	-0.000000	
22.916000	45.289307	722.653015	-2.211607	0.377328	0.000000	-0.815800	0.000017	-10.304663	0.000019	-0.000000	-0.000000	0.000000	0.727500	0.000000	-0.812500	0.000000	0.000000	-0.000000	
22.917000	51.850586	721.442078	-1.143492	0.383591	0.000000	-0.807742	0.000034	-11.118776	0.000014	-0.000000	-0.000000	0.000000	0.727500	0.000000	-0.812500	0.000000	0.000000	-0.000000	
22.918000	54.597168	718.414734	-4.347837	0.386441	0.000000	-0.804383	0.000044	-10.203380	-0.000002	-0.000000	-0.000000	0.000000	0.727500	0.000000	-0.812500	0.000000	0.000000	-0.000000	
22.919000	51.392822	713.570984	-8.467710	0.384304	0.000000	-0.806438	0.000026	-7.134089	0.000014	-0.000000	-0.000000	0.000000	0.727500	0.000000	-0.812500	0.000000	0.000000	-0.000000	
22.920000	43.610840	709.029968	-14.571226	0.378849	0.000000	-0.810575	0.000024	-4.143796	-0.000012	-0.000000	-0.000000	0.000000	0.727500	0.000000	-0.812500	0.000000	0.000000	-0.000000	
22.921000	38.728027	707.213562	-13.197935	0.376271	0.000000	-0.805788	0.000021	-7.878991	0.000014	-0.000000	-0.000000	0.000000	0.727500	0.000000	-0.812500	0.000000	0.000000	-0.000000	
22.922000	44.068604	714.479187	-8.315123	0.377923	0.000000	-0.804733	0.000028	-7.611774	0.000029	-0.000000	-0.000000	0.000000	0.727500	0.000000	-0.812500	0.000000	0.000000	-0.000000	
22.923000	49.714355	723.258484	-5.721128	0.382322	0.000000	-0.806385	0.000045	-4.525366	0.000022	-0.000000	-0.000000	0.000000	0.727500	0.000000	-0.812500	0.000000	0.000000	-0.000000	
22.924000	55.970459	727.496765	-8.315123	0.385373	0.000000	-0.805360	0.000014	-5.443954	0.000008	-0.000000	-0.000000	0.000000	0.727500	0.000000	-0.812500	0.000000	0.000000	-0.000000	
22.925000	53.071289	726.285828	-9.078062	0.382253	0.000000	-0.804696	0.000034	-6.714395	0.000008	-0.000000	-0.000000	0.000000	0.727500	0.000000	-0.812500	0.000000	0.000000	-0.000000	
22.926000	45.747070	718.717468	-8.315123	0.378983	0.000000	-0.798636	0.000005	-5.867120	0.000015	-0.000000	-0.000000	0.000000	0.727500	0.000000	-0.812500	0.000000	0.000000	-0.000000	
22.927000	46.204834	710.240906	-7.857359	0.379763	0.000000	-0.795170	-0.000004	-8.681348	0.000022	-0.000000	-0.000000	0.000000	0.727500	0.000000	-0.812500	0.000000	0.000000	-0.000000	
22.928000	47.883301	710.240906	-9.230650	0.380387	0.000000	-0.798591	-0.000002	-8.553873	0.000015	-0.000000	-0.000000	0.000000	0.727500	0.000000	-0.812500	0.000000	0.000000	-0.000000	
